<?xml version="1.0" standalone="no"?>
<!DOCTYPE svg PUBLIC "-//W3C//DTD SVG 20010904//EN"
 "http://www.w3.org/TR/2001/REC-SVG-20010904/DTD/svg10.dtd">
<svg version="1.0" xmlns="http://www.w3.org/2000/svg"
 width="512.000000pt" height="512.000000pt" viewBox="0 0 512.000000 512.000000"
 preserveAspectRatio="xMidYMid meet">
<metadata>
Created by potrace 1.14, written by Peter Selinger 2001-2017
</metadata>
<g transform="translate(0.000000,512.000000) scale(0.100000,-0.100000)"
fill="#000000" stroke="none">
<path d="M0 2560 l0 -2560 2560 0 2560 0 0 2560 0 2560 -2560 0 -2560 0 0
-2560z m2863 1576 c110 -28 253 -93 348 -156 146 -98 300 -288 360 -445 55
-140 72 -249 66 -415 -6 -170 -29 -273 -86 -396 -51 -109 -89 -163 -180 -257
-139 -144 -266 -223 -454 -285 -113 -37 -117 -39 -98 -56 10 -10 29 -41 42
-69 19 -44 23 -76 28 -212 7 -180 17 -212 81 -250 33 -19 56 -20 395 -25 l360
-5 57 -28 c60 -29 99 -71 139 -147 33 -62 34 -183 2 -252 -30 -66 -95 -132
-156 -159 l-52 -24 -1135 -3 c-1282 -3 -1198 -8 -1290 75 -28 25 -61 68 -77
101 -24 48 -28 69 -28 137 1 97 26 156 95 225 71 72 78 73 485 79 336 6 362 7
394 26 70 41 75 58 82 243 7 181 15 216 69 283 l29 36 -62 17 c-298 83 -577
344 -677 632 -72 207 -76 476 -10 676 110 329 413 593 763 663 115 23 125 24
272 20 109 -3 162 -9 238 -29z"/>
<path d="M2459 3532 c-121 -40 -217 -134 -250 -244 -30 -98 -24 -218 15 -305
92 -202 367 -283 579 -171 140 75 214 240 187 416 -21 133 -92 226 -217 284
-56 27 -80 32 -162 35 -74 2 -109 -1 -152 -15z"/>
</g>
</svg>
